<svg width="193" height="132" viewBox="0 0 193 132" fill="none" xmlns="http://www.w3.org/2000/svg">
<path d="M15.2923 130.613V110.746C15.2923 100.466 25.1006 92.0615 37.2259 92.0615C37.2259 92.0615 59.3654 92.5241 66.7538 92.5241C74.1422 92.5241 95.252 92.0615 95.252 92.0615C107.352 92.0615 117.16 100.414 117.16 110.746V130.613H15.2923Z" fill="#1A3248"/>
<path d="M123.055 112.005H9.08783V121.386H123.055V112.005Z" fill="#3E99D5"/>
<path d="M123.055 109.075H9.08783V112.005H123.055V109.075Z" fill="#F8C545"/>
<path d="M132.116 120.127H0V132.001H132.116V120.127Z" fill="#1A3248"/>
<path d="M132.116 117.762H0V120.126H132.116V117.762Z" fill="#F8C545"/>
<path d="M99.9364 42.1494L189.241 80.3667L189.704 80.598C193.463 82.6798 194.107 89.0536 191.095 94.862C188.083 100.67 182.625 103.652 178.841 101.57L93.8867 54.6401L99.9364 42.1494Z" fill="#1A3248"/>
<path d="M83.4101 70.3183C81.2219 68.0053 76.4335 64.6898 66.2648 59.7553C62.0869 57.6471 57.7889 55.7849 53.393 54.1781C51.5242 53.4489 49.5685 52.9651 47.5749 52.7389C47.5749 52.7389 57.8724 35.3394 60.8071 29.2996C63.7419 23.2599 70.7957 5.37207 70.7957 5.37207C72.9839 7.68515 77.7979 10.9749 87.8894 15.9095C97.9809 20.844 103.593 22.6431 106.76 22.9258C106.76 22.9258 96.8225 39.6571 93.8877 45.4655C90.9529 51.2739 83.4101 70.3183 83.4101 70.3183Z" fill="#F8B345"/>
<path d="M45.7203 56.234C47.3164 52.9443 83.2803 70.498 81.7614 73.7877C80.2425 77.0775 70.7946 75.8181 60.8576 70.9863C50.9205 66.1546 44.0985 59.5237 45.7203 56.234ZM108.329 19.4046C109.951 16.1149 103.18 9.50971 93.2688 4.65224C83.3575 -0.205241 73.9868 -1.46459 72.3907 1.82513C70.7946 5.11485 106.707 22.6943 108.329 19.4046Z" fill="#1A3248"/>
<path d="M120.094 69.4702L92.4965 54.2295L99.1898 40.5566L128.306 53.0216L120.094 69.4702Z" fill="#F8C545"/>
<path d="M128.824 52.0257L119.62 70.5049L121.878 71.6264L131.083 53.1472L128.824 52.0257Z" fill="#F8B345"/>
<g style="mix-blend-mode:multiply" opacity="0.4">
<path d="M9.0875 112.005V109.076H15.4462C16.4502 99.5405 25.7436 92.0615 37.2768 92.0615C37.2768 92.0615 58.1291 92.4984 66.1096 92.5241V132.001H0V117.762H9.0875V112.005Z" fill="#B3A281"/>
</g>
<g style="mix-blend-mode:multiply" opacity="0.4">
<path d="M178.841 101.571L122.436 70.447L121.87 71.6293L119.605 70.4984L120.222 69.2134L120.094 69.4704L92.4965 54.2297L95.8174 47.4961L191.301 94.4517C191.301 94.4517 191.301 94.7087 191.095 94.8629C188.108 100.646 182.625 103.653 178.841 101.571Z" fill="#B3A281"/>
</g>
<g style="mix-blend-mode:multiply" opacity="0.4">
<path d="M81.6585 73.7876C80.0624 77.0773 70.6917 75.818 60.7546 70.9862C50.8176 66.1544 44.0985 59.5236 45.7204 56.2339C47.3422 52.9441 83.2803 70.4979 81.6585 73.7876Z" fill="#B3A281"/>
</g>
<g style="mix-blend-mode:multiply" opacity="0.4">
<path d="M83.4101 70.3183C81.2218 68.0052 76.4335 64.6898 66.2648 59.7552C62.0869 57.647 57.7889 55.7848 53.393 54.1781C51.5242 53.4489 49.5685 52.9651 47.5749 52.7389C47.5749 52.7389 57.0743 36.6501 60.4467 30.0449L93.4243 46.2622C90.2321 53.0987 83.4101 70.3183 83.4101 70.3183Z" fill="#B3A281"/>
</g>
</svg>
