<svg width="136" height="132" viewBox="0 0 136 132" fill="none" xmlns="http://www.w3.org/2000/svg">
<path d="M8.40036 32.0869C5.60028 32.0869 3.50021 38.2757 3.50021 46.0257C3.50021 53.7756 5.60028 59.6578 8.40036 59.6578H96.6869V32.0869H8.40036Z" fill="white"/>
<path d="M136.001 83.3262H29.5974V105.071H136.001V83.3262Z" fill="#545454"/>
<path d="M40.8538 83.3262H38.2217V105.071H40.8538V83.3262Z" fill="#E05345"/>
<path d="M47.154 83.3262H44.5219V105.071H47.154V83.3262Z" fill="#E05345"/>
<path d="M119.843 61.5811H13.4675V83.3255H119.843V61.5811Z" fill="#154161"/>
<path d="M24.7238 61.5811H22.0917V83.3255H24.7238V61.5811Z" fill="#E05345"/>
<path d="M30.9968 61.5811H28.3647V83.3255H30.9968V61.5811Z" fill="#E05345"/>
<path d="M124.576 105.517H0V132H124.576V105.517Z" fill="#1A3248"/>
<path d="M114.075 105.517H110.855V132H114.075V105.517Z" fill="#E05345"/>
<path d="M106.402 105.517H103.182V132H106.402V105.517Z" fill="#E05345"/>
<path d="M99.0109 62.083H6.8042C2.12806 62.083 0 53.9706 0 46.4158C0 38.861 2.12806 30.665 6.8042 30.665H99.0109V34.4006H6.8042C5.99218 34.6236 3.78011 38.5823 3.78011 46.3043C3.78011 54.0264 5.99218 58.0129 6.8322 58.208H99.0109V62.083Z" fill="#8488A6"/>
<path d="M88.5382 54.9462L82.7981 49.9283L77.0299 54.9462V37.9131H88.5382V54.9462Z" fill="#E05345"/>
<path d="M28.3095 1.86816C25.5094 1.86816 23.4094 8.05697 23.4094 15.8069C23.4094 23.5569 25.6214 29.5784 28.3095 29.5784H116.736V1.86816H28.3095Z" fill="white"/>
<path d="M120.404 31.3064H28.3094C23.6613 31.3064 21.5332 23.1941 21.5332 15.6672C21.5332 8.14023 23.6613 0 28.3094 0H120.404V3.76346H28.3094C27.4974 3.95861 25.2013 7.91721 25.2013 15.6672C25.2013 23.4171 27.4134 27.3757 28.2534 27.5709H120.404V31.3064Z" fill="#919191"/>
<path d="M108.587 24.7275L102.847 19.7095L97.0788 24.7275V7.69434H108.587V24.7275Z" fill="#E05345"/>
<g style="mix-blend-mode:multiply" opacity="0.4">
<path d="M114.047 132H124.576V105.517H114.047H110.855H106.403H103.183H65.9138V132H103.183H106.403H110.855H114.047Z" fill="#B3A281"/>
</g>
<g style="mix-blend-mode:multiply" opacity="0.4">
<path d="M119.843 61.5814H99.0108V58.3197H96.6867V34.5124H99.0108V31.3064H120.515V27.5709H116.735V3.76346H120.515V0H65.9138V105.07H135.972V83.3259H119.843V61.5814Z" fill="#B3A281"/>
</g>
</svg>
